<svg width="50" height="50" viewBox="0 0 50 50" fill="none" xmlns="http://www.w3.org/2000/svg">
<path fill-rule="evenodd" clip-rule="evenodd" d="M25 50C38.8071 50 50 38.8071 50 25C50 11.1929 38.8071 0 25 0C11.1929 0 0 11.1929 0 25C0 38.8071 11.1929 50 25 50ZM21.5833 10C21.031 10 20.5833 10.4477 20.5833 11V12.5H14C13.4477 12.5 13 12.9477 13 13.5C13 14.0523 13.4477 14.5 14 14.5H38C38.5523 14.5 39 14.0523 39 13.5C39 12.9477 38.5523 12.5 38 12.5H31.4167V11C31.4167 10.4477 30.969 10 30.4167 10H21.5833ZM22.75 11.5V12.5H29.25V11.5H22.75ZM13.4284 18.3576C13.2053 17.13 14.1485 16 15.3962 16H36.8538C38.1015 16 39.0446 17.13 38.8215 18.3576L34.8235 40.3576C34.6506 41.3087 33.8223 42 32.8557 42H19.3943C18.4276 42 17.5993 41.3087 17.4265 40.3576L13.4284 18.3576ZM20.5 19.5C20.2238 19.5 20 19.7239 20 20V39C20 39.2761 20.2238 39.5 20.5 39.5H21.5C21.7761 39.5 22 39.2761 22 39V20C22 19.7239 21.7761 19.5 21.5 19.5H20.5ZM25.5 19.5C25.2238 19.5 25 19.7239 25 20V39C25 39.2761 25.2238 39.5 25.5 39.5H26.5C26.7761 39.5 27 39.2761 27 39V20C27 19.7239 26.7761 19.5 26.5 19.5H25.5ZM31.5 19.5C31.7761 19.5 32 19.7239 32 20V39C32 39.2761 31.7761 39.5 31.5 39.5H30.5C30.2238 39.5 30 39.2761 30 39V20C30 19.7239 30.2238 19.5 30.5 19.5H31.5Z" fill="#EE0022"/>
</svg>
