<svg width="50" height="35" viewBox="0 0 50 35" fill="none" xmlns="http://www.w3.org/2000/svg">
<path fill-rule="evenodd" clip-rule="evenodd" d="M0 2.5C0 1.11929 1.11929 0 2.5 0H47.5C48.8807 0 50 1.11929 50 2.5V2.5C50 3.88071 48.8807 5 47.5 5H2.5C1.11929 5 0 3.88071 0 2.5V2.5ZM0 17.5C0 16.1193 1.11929 15 2.5 15H47.5C48.8807 15 50 16.1193 50 17.5V17.5C50 18.8807 48.8807 20 47.5 20H2.5C1.11929 20 0 18.8807 0 17.5V17.5ZM50 32.5C50 31.1193 48.8807 30 47.5 30H2.5C1.11929 30 0 31.1193 0 32.5V32.5C0 33.8807 1.11929 35 2.5 35H47.5C48.8807 35 50 33.8807 50 32.5V32.5Z" fill="white"/>
</svg>
