<svg width="50" height="50" viewBox="0 0 50 50" fill="none" xmlns="http://www.w3.org/2000/svg">
<path fill-rule="evenodd" clip-rule="evenodd" d="M25 50C38.8071 50 50 38.8071 50 25C50 11.1929 38.8071 0 25 0C11.1929 0 0 11.1929 0 25C0 38.8071 11.1929 50 25 50ZM15.418 35.5953C14.8607 35.0379 14.8607 34.1343 15.418 33.577L23.5224 25.4725L15.6832 17.6333C15.1259 17.076 15.1259 16.1723 15.6832 15.615C16.2405 15.0577 17.1442 15.0577 17.7015 15.615L25.5407 23.4542L33.5828 15.4122C34.1401 14.8548 35.0438 14.8548 35.6011 15.4122C36.1585 15.9695 36.1585 16.8731 35.6011 17.4305L27.559 25.4725L35.8663 33.7798C36.4236 34.3371 36.4236 35.2408 35.8663 35.7981C35.309 36.3554 34.4053 36.3554 33.848 35.7981L25.5407 27.4908L17.4363 35.5953C16.879 36.1526 15.9753 36.1526 15.418 35.5953Z" fill="#EE0022"/>
</svg>
