<svg width="100" height="100" viewBox="0 0 100 100" fill="none" xmlns="http://www.w3.org/2000/svg">
<path fill-rule="evenodd" clip-rule="evenodd" d="M87.4074 20.102C88.3837 19.1257 88.3837 17.5428 87.4074 16.5665L82.6087 11.7678C81.6324 10.7915 80.0494 10.7915 79.0731 11.7678L51.3553 39.4856C50.379 40.4619 48.7961 40.4619 47.8198 39.4856L20.102 11.7678C19.1257 10.7915 17.5428 10.7915 16.5665 11.7678L11.7678 16.5665C10.7915 17.5428 10.7915 19.1257 11.7678 20.102L39.4856 47.8198C40.4619 48.7961 40.4619 50.379 39.4856 51.3553L11.7678 79.0732C10.7914 80.0495 10.7914 81.6324 11.7678 82.6087L16.5664 87.4074C17.5428 88.3837 19.1257 88.3837 20.102 87.4074L47.8198 59.6896C48.7961 58.7132 50.379 58.7132 51.3553 59.6896L79.0732 87.4074C80.0495 88.3837 81.6324 88.3837 82.6087 87.4074L87.4074 82.6087C88.3837 81.6324 88.3837 80.0495 87.4074 79.0732L59.6896 51.3553C58.7133 50.379 58.7133 48.7961 59.6896 47.8198L87.4074 20.102Z" fill="white"/>
</svg>
