<svg width="38" height="38" viewBox="0 0 38 38" fill="none" xmlns="http://www.w3.org/2000/svg">
	<path fill-rule="evenodd" clip-rule="evenodd" fill="white" d="
		M0.767755 32.5876
		C-0.208555 33.5639 -0.208555 35.1468 0.767755 36.1231
		C1.74407 37.0994 3.32698 37.0994 4.30329 36.1231
		L18.5 21.9264
		L33.052 36.4784
		C34.0283 37.4548 35.6112 37.4548 36.5876 36.4784
		C37.5639 35.5021 37.5639 33.9192 36.5876 32.9429
		L22.0355 18.3909
		L36.1231 4.3033
		C37.0994 3.32699 37.0994 1.74408 36.1231 0.767771
		C35.1468 -0.20854 33.5639 -0.20854 32.5876 0.767771
		L18.5 14.8553
		L4.76776 1.12311
		C3.79144 0.146798 2.20853 0.146798 1.23222 1.12311
		C0.255911 2.09942 0.255911 3.68233 1.23222 4.65864
		L14.9645 18.3909
		L0.767755 32.5876
		Z
	"/>
</svg>
