<svg width="100" height="100" viewBox="0 0 100 100" fill="none" xmlns="http://www.w3.org/2000/svg">
<path fill-rule="evenodd" clip-rule="evenodd" d="M11 25.7C11 24.3193 12.1193 23.2 13.5 23.2H86.5C87.8807 23.2 89 24.3193 89 25.7V28.5C89 29.8807 87.8807 31 86.5 31H13.5C12.1193 31 11 29.8807 11 28.5V25.7ZM11 49.1C11 47.7193 12.1193 46.6 13.5 46.6H86.5C87.8807 46.6 89 47.7193 89 49.1V51.9C89 53.2807 87.8807 54.4 86.5 54.4H13.5C12.1193 54.4 11 53.2807 11 51.9V49.1ZM89 72.5C89 71.1193 87.8807 70 86.5 70H13.5C12.1193 70 11 71.1193 11 72.5V75.3C11 76.6807 12.1193 77.8 13.5 77.8H86.5C87.8807 77.8 89 76.6807 89 75.3V72.5Z" fill="white"/>
</svg>
