<svg width="50" height="70" viewBox="0 0 50 70" fill="none" xmlns="http://www.w3.org/2000/svg">
<path d="M50 70H0V55V0H35L50 15V55V70Z" fill="#E9E9E0"/>
<path d="M0 70H50V55H0V70Z" fill="#CC4B4C"/>
<path d="M16.5742 63.748H18.0215C18.4512 63.748 18.8457 63.6855 19.2051 63.5605C19.5684 63.4355 19.8809 63.2598 20.1426 63.0332C20.4043 62.8027 20.6074 62.5273 20.752 62.207C20.8965 61.8867 20.9688 61.5312 20.9688 61.1406C20.9688 60.7305 20.8965 60.3613 20.752 60.0332C20.6074 59.7051 20.4043 59.4258 20.1426 59.1953C19.8809 58.9648 19.5684 58.7871 19.2051 58.6621C18.8457 58.5371 18.4512 58.4727 18.0215 58.4688H15.168V67H16.5742V63.748ZM16.5742 62.5996V59.6172H18.0215C18.2598 59.6172 18.4727 59.6562 18.6602 59.7344C18.8516 59.8086 19.0137 59.9141 19.1465 60.0508C19.2793 60.1875 19.3789 60.3496 19.4453 60.5371C19.5156 60.7207 19.5508 60.9258 19.5508 61.1523C19.5508 61.3594 19.5156 61.5508 19.4453 61.7266C19.3789 61.9023 19.2793 62.0547 19.1465 62.1836C19.0137 62.3125 18.8516 62.4141 18.6602 62.4883C18.4727 62.5586 18.2598 62.5957 18.0215 62.5996H16.5742ZM22.2051 67H24.3613C24.752 67 25.1172 66.9531 25.457 66.8594C25.8008 66.7656 26.1133 66.6309 26.3945 66.4551C26.6445 66.2949 26.8711 66.1016 27.0742 65.875C27.2812 65.6484 27.457 65.3965 27.6016 65.1191C27.75 64.834 27.8633 64.5195 27.9414 64.1758C28.0234 63.8281 28.0645 63.4609 28.0645 63.0742V62.4062C28.0645 62.0039 28.0215 61.625 27.9355 61.2695C27.8496 60.9141 27.7285 60.5879 27.5723 60.291C27.4199 60.0059 27.2305 59.748 27.0039 59.5176C26.7812 59.2871 26.5254 59.0957 26.2363 58.9434C25.9707 58.7949 25.6758 58.6797 25.3516 58.5977C25.0273 58.5117 24.6816 58.4688 24.3145 58.4688H22.2051V67ZM23.6289 59.6172H24.3145C24.541 59.6172 24.752 59.6426 24.9473 59.6934C25.1426 59.7441 25.3184 59.8145 25.4746 59.9043C25.6895 60.0254 25.875 60.1816 26.0312 60.373C26.1875 60.5645 26.3125 60.7812 26.4062 61.0234C26.4805 61.2188 26.5371 61.4316 26.5762 61.6621C26.6152 61.8926 26.6348 62.1367 26.6348 62.3945V63.0742C26.6348 63.3359 26.6152 63.582 26.5762 63.8125C26.5371 64.043 26.4805 64.2559 26.4062 64.4512C26.3203 64.6777 26.2109 64.8809 26.0781 65.0605C25.9453 65.2402 25.791 65.3887 25.6152 65.5059C25.4473 65.6191 25.2578 65.707 25.0469 65.7695C24.8398 65.8281 24.6113 65.8574 24.3613 65.8574H23.6289V59.6172ZM34.6094 63.3672V62.207H31V59.6348H35.125V58.4688H29.582V67H31V63.3672H34.6094Z" fill="white"/>
<path d="M50 15L35 0V15H50Z" fill="#D9D7CA"/>
<path d="M10.6095 45.2083C16.604 52.25 26.4132 10 19.8737 10C13.3343 10 34.0425 45.2083 39.492 37.0833C44.9415 28.9583 4.61506 38.1667 10.6095 45.2083Z" stroke="#CC4B4C" stroke-width="2"/>
</svg>
