<svg width="100" height="100" viewBox="0 0 100 100" fill="none" xmlns="http://www.w3.org/2000/svg">
<path fill-rule="evenodd" clip-rule="evenodd" d="M88.4224 40.5987C88.4224 57.4979 74.7229 71.1974 57.8237 71.1974C51.6535 71.1974 45.9098 69.3711 41.1038 66.2296L18.7871 88.5464C17.8107 89.5227 16.2278 89.5227 15.2515 88.5464L11.7322 85.0271C10.7559 84.0508 10.7559 82.4678 11.7322 81.4915L33.7436 59.4802C29.6601 54.2797 27.225 47.7236 27.225 40.5987C27.225 23.6995 40.9245 10 57.8237 10C74.7229 10 88.4224 23.6995 88.4224 40.5987ZM57.8064 63.2452C70.3042 63.2452 80.4356 53.1137 80.4356 40.616C80.4356 28.1182 70.3042 17.9868 57.8064 17.9868C45.3087 17.9868 35.1772 28.1182 35.1772 40.616C35.1772 53.1137 45.3087 63.2452 57.8064 63.2452Z" fill="white"/>
</svg>
