<svg width="100" height="100" viewBox="0 0 100 100" fill="none" xmlns="http://www.w3.org/2000/svg">
<path fill-rule="evenodd" clip-rule="evenodd" d="M44.0971 96.5534C59.8908 96.5534 72.6942 75.7107 72.6942 50C72.6942 24.2893 59.8908 3.4466 44.0971 3.4466C28.3034 3.4466 15.5 24.2893 15.5 50C15.5 75.7107 28.3034 96.5534 44.0971 96.5534ZM41.1947 19.0777C41.1947 18.5254 40.747 18.0777 40.1947 18.0777H39.0977C38.5454 18.0777 38.0977 18.5254 38.0977 19.0777V29.8776C37.4248 30.1377 36.7875 30.4618 36.1858 30.8499C34.362 32.0263 33.1576 33.2307 32.5726 34.4631C32.2629 34.9112 32.2285 35.3594 32.4694 35.8075L33.9147 38.7485C34.1556 39.3087 34.5341 39.2526 35.0503 38.5804C35.2567 38.3563 35.5492 38.0482 35.9278 37.6561C36.3407 37.264 37.0117 36.7598 37.9408 36.1436C37.9914 36.107 38.0437 36.0715 38.0977 36.0369L38.0977 47.8277C36.8157 48.3519 35.6794 49.0508 34.6889 49.9242C32.2457 52.0529 31.0241 55.414 31.0241 60.0075C31.0241 63.5927 31.8156 66.4496 33.3985 68.5783C34.6743 70.2488 36.2407 71.2462 38.0977 71.5703V81.779C38.0977 82.3313 38.5454 82.779 39.0977 82.779H40.1947C40.747 82.779 41.1947 82.3313 41.1947 81.779V71.5227C42.2916 71.3045 43.324 70.8697 44.2917 70.2181V81.779C44.2917 82.3313 44.7394 82.779 45.2917 82.779H46.3887C46.941 82.779 47.3887 82.3313 47.3887 81.779V67.0902C48.1695 65.9908 48.8914 64.6943 49.5546 63.2005H49.6579V67.486C49.6579 69.8387 50.3977 71.0151 51.8774 71.0151H56.3681C56.781 71.0151 56.9875 70.679 56.9875 70.0068V66.3936C56.9875 65.7214 56.781 65.3853 56.3681 65.3853H53.4775V45.8908C53.4775 37.4939 51.4479 32.2436 47.3887 30.14V19.0777C47.3887 18.5254 46.941 18.0777 46.3887 18.0777H45.2917C44.7394 18.0777 44.2917 18.5254 44.2917 19.0777V29.1913C43.7633 29.1206 43.212 29.0853 42.638 29.0853C42.1439 29.0853 41.6628 29.1087 41.1947 29.1555V19.0777ZM41.1947 46.9487V35.1831C41.5964 35.1512 42.0259 35.1353 42.4831 35.1353C43.1332 35.1353 43.7361 35.2092 44.2917 35.3571V46.6535C43.1982 46.6786 42.1658 46.7769 41.1947 46.9487ZM47.3887 46.6471V37.5696C48.5918 39.3177 49.1933 42.0075 49.1933 45.6387V46.6471H47.3887ZM41.1947 51.9742C42.0984 51.8196 43.1307 51.7278 44.2917 51.6988V64.7163C43.3179 65.3114 42.2856 65.6422 41.1947 65.7088V51.9742ZM47.3887 51.6887V61.6583C48.0236 60.7546 48.6252 59.7002 49.1933 58.495V51.6887H47.3887ZM38.0977 53.1578V64.9627C37.6635 64.679 37.2671 64.3157 36.9085 63.8728C35.945 62.5843 35.4632 60.9598 35.4632 58.9992C35.4632 57.0385 35.9105 55.498 36.8052 54.3776C37.2016 53.8997 37.6324 53.4931 38.0977 53.1578Z" fill="#FFC107"/>
<path fill-rule="evenodd" clip-rule="evenodd" d="M40.1947 18.0777C40.747 18.0777 41.1947 18.5254 41.1947 19.0777V29.1555C41.6628 29.1087 42.1439 29.0853 42.638 29.0853C43.212 29.0853 43.7633 29.1206 44.2917 29.1913V19.0777C44.2917 18.5254 44.7394 18.0777 45.2917 18.0777H46.3887C46.941 18.0777 47.3888 18.5254 47.3888 19.0777V30.14C51.4479 32.2436 53.4775 37.4939 53.4775 45.8908V65.3853H56.3681C56.781 65.3853 56.9875 65.7214 56.9875 66.3936V70.0068C56.9875 70.679 56.781 71.0151 56.3681 71.0151H51.8774C50.3977 71.0151 49.6579 69.8387 49.6579 67.486V63.2006H49.5546C48.8914 64.6943 48.1695 65.9908 47.3887 67.0902V81.779C47.3887 82.3313 46.941 82.779 46.3887 82.779H45.2917C44.7394 82.779 44.2917 82.3313 44.2917 81.779V70.2181C43.324 70.8697 42.2916 71.3045 41.1947 71.5227V81.779C41.1947 82.3313 40.747 82.779 40.1947 82.779H39.0977C38.5454 82.779 38.0977 82.3313 38.0977 81.779L38.0977 71.5703C36.2407 71.2462 34.6743 70.2489 33.3985 68.5783C31.8156 66.4496 31.0241 63.5927 31.0241 60.0075C31.0241 55.414 32.2457 52.0529 34.6889 49.9242C35.6794 49.0508 36.8157 48.3519 38.0977 47.8277L38.0977 36.0369C38.0437 36.0715 37.9914 36.107 37.9408 36.1436C37.0117 36.7598 36.3407 37.264 35.9278 37.6561C35.5492 38.0483 35.2567 38.3564 35.0503 38.5804C34.5341 39.2526 34.1556 39.3087 33.9147 38.7485L32.4694 35.8075C32.2285 35.3594 32.2629 34.9112 32.5726 34.4631C33.1576 33.2307 34.362 32.0263 36.1858 30.8499C36.7875 30.4618 37.4248 30.1377 38.0977 29.8776L38.0977 19.0777C38.0977 18.5254 38.5454 18.0777 39.0977 18.0777H40.1947ZM41.1947 35.1831V46.9487C42.1658 46.7769 43.1982 46.6786 44.2917 46.6535V35.3571C43.7361 35.2092 43.1332 35.1353 42.4831 35.1353C42.0259 35.1353 41.5964 35.1512 41.1947 35.1831ZM47.3888 37.5696V46.6471H49.1933V45.6388C49.1933 42.0075 48.5918 39.3177 47.3888 37.5696ZM44.2917 51.6988C43.1307 51.7278 42.0984 51.8196 41.1947 51.9742V65.7088C42.2856 65.6422 43.3179 65.3114 44.2917 64.7163V51.6988ZM47.3887 61.6583V51.6888H49.1933V58.495C48.6252 59.7002 48.0237 60.7546 47.3887 61.6583ZM38.0977 64.9627L38.0977 53.1578C37.6324 53.4931 37.2016 53.8997 36.8052 54.3776C35.9105 55.498 35.4632 57.0385 35.4632 58.9992C35.4632 60.9598 35.945 62.5843 36.9085 63.8728C37.2671 64.3157 37.6635 64.679 38.0977 64.9627Z" fill="white"/>
<path d="M55.4029 96.5534C71.1966 96.5534 84 75.7107 84 50C84 24.2893 71.1966 3.4466 55.4029 3.4466H43.432C59.2258 3.4466 72.0291 24.2893 72.0291 50C72.0291 75.7107 59.2258 96.5534 43.432 96.5534H55.4029Z" fill="#FF9800"/>
<path d="M30.5142 14.8187C23.0694 21.6783 19.2342 36.7694 19.0086 42.7559C18.783 48.7424 23.0694 48.0772 23.0694 42.7559C23.0694 37.4345 26.4534 22.5791 35.9286 14.8187C41.6138 10.1626 39.1773 6.83671 30.5142 14.8187Z" fill="white"/>
<path d="M65.6378 74.3655C64.828 77.7645 60.2339 85.4824 58.4379 86.6704C56.6419 87.8584 56.1119 86.5353 57.7432 85.5362C59.3745 84.537 63.9641 76.9741 64.6975 72.8302C65.1375 70.3438 66.5802 70.4103 65.6378 74.3655Z" fill="white"/>
<circle cx="54.7379" cy="87.9078" r="0.665049" fill="white"/>
<circle cx="65.3786" cy="67.9563" r="0.665049" fill="white"/>
<circle cx="22.8155" cy="62.6359" r="0.665049" fill="white"/>
<circle cx="45.4272" cy="9.43204" r="0.665049" fill="white"/>
<circle cx="21.4854" cy="51.9951" r="1.99515" fill="white"/>
<circle cx="22.1505" cy="57.9806" r="1.3301" fill="white"/>
<circle cx="42.1019" cy="10.0971" r="1.3301" fill="white"/>
<rect x="58.0631" y="91.233" width="6.65049" height="1.3301" rx="0.5" fill="#FFC107"/>
<rect x="54.0728" y="4.7767" width="5.32039" height="1.3301" rx="0.5" fill="#FFC107"/>
<rect x="58.0631" y="7.43689" width="5.32039" height="1.3301" rx="0.5" fill="#FFC107"/>
<rect x="62.0534" y="10.0971" width="5.32039" height="1.3301" rx="0.5" fill="#FFC107"/>
<rect x="64.7136" y="12.7573" width="5.32039" height="1.3301" rx="0.5" fill="#FFC107"/>
<rect x="66.0437" y="15.4175" width="5.32039" height="1.3301" rx="0.5" fill="#FFC107"/>
<rect x="67.3738" y="18.0777" width="6.65049" height="1.3301" rx="0.5" fill="#FFC107"/>
<rect x="68.7039" y="20.7379" width="6.65049" height="1.3301" rx="0.5" fill="#FFC107"/>
<rect x="70.034" y="23.3981" width="5.32039" height="1.3301" rx="0.5" fill="#FFC107"/>
<rect x="70.034" y="26.0583" width="6.65049" height="1.3301" rx="0.5" fill="#FFC107"/>
<rect x="71.3641" y="28.7184" width="7.98058" height="1.3301" rx="0.5" fill="#FFC107"/>
<rect x="71.3641" y="31.3786" width="9.31068" height="1.3301" rx="0.5" fill="#FFC107"/>
<rect x="72.6942" y="34.0388" width="6.65049" height="1.3301" rx="0.5" fill="#FFC107"/>
<rect x="72.6942" y="36.699" width="7.98058" height="1.3301" rx="0.5" fill="#FFC107"/>
<rect x="75.3544" y="39.3592" width="6.65049" height="1.3301" rx="0.5" fill="#FFC107"/>
<rect x="74.0243" y="42.0194" width="6.65049" height="1.3301" rx="0.5" fill="#FFC107"/>
<rect x="74.0243" y="44.6796" width="7.98058" height="1.3301" rx="0.5" fill="#FFC107"/>
<rect x="75.3544" y="47.3398" width="6.65049" height="1.3301" rx="0.5" fill="#FFC107"/>
<rect x="75.3544" y="51.3301" width="6.65049" height="1.3301" rx="0.5" fill="#FFC107"/>
<rect x="74.0243" y="53.9903" width="7.98058" height="1.3301" rx="0.5" fill="#FFC107"/>
<rect x="74.0243" y="56.6505" width="6.65049" height="1.3301" rx="0.5" fill="#FFC107"/>
<rect x="75.3544" y="59.3107" width="6.65049" height="1.3301" rx="0.5" fill="#FFC107"/>
<rect x="72.6942" y="61.9709" width="7.98058" height="1.3301" rx="0.5" fill="#FFC107"/>
<rect x="74.0243" y="64.6311" width="6.65049" height="1.3301" rx="0.5" fill="#FFC107"/>
<rect x="72.6942" y="67.2913" width="6.65049" height="1.3301" rx="0.5" fill="#FFC107"/>
<rect x="71.3641" y="69.9515" width="7.98058" height="1.3301" rx="0.5" fill="#FFC107"/>
<rect x="70.034" y="72.6116" width="7.98058" height="1.3301" rx="0.5" fill="#FFC107"/>
<rect x="70.034" y="75.2719" width="6.65049" height="1.3301" rx="0.5" fill="#FFC107"/>
<rect x="68.7039" y="77.932" width="7.98058" height="1.3301" rx="0.5" fill="#FFC107"/>
<rect x="67.3738" y="80.5922" width="6.65049" height="1.3301" rx="0.5" fill="#FFC107"/>
<rect x="66.0437" y="83.2524" width="6.65049" height="1.3301" rx="0.5" fill="#FFC107"/>
<rect x="63.3835" y="85.9126" width="6.65049" height="1.3301" rx="0.5" fill="#FFC107"/>
<rect x="60.7233" y="88.5728" width="6.65049" height="1.3301" rx="0.5" fill="#FFC107"/>
<rect x="54.0728" y="93.8932" width="5.32039" height="1.3301" rx="0.5" fill="#FFC107"/>
</svg>
